<?xml version="1.0" encoding="UTF-8"?>
<!DOCTYPE svg PUBLIC "-//W3C//DTD SVG 1.1//EN" "http://www.w3.org/Graphics/SVG/1.1/DTD/svg11.dtd">
<svg xmlns="http://www.w3.org/2000/svg" version="1.1" width="1069px" height="194px" style="shape-rendering:geometricPrecision; text-rendering:geometricPrecision; image-rendering:optimizeQuality; fill-rule:evenodd; clip-rule:evenodd" xmlns:xlink="http://www.w3.org/1999/xlink">
<g><path style="opacity:0.901" fill="#020200" d="M 158.5,50.5 C 175.844,52.8586 193.177,55.3586 210.5,58C 227.446,60.9457 237.946,70.779 242,87.5C 245.609,103.003 241.443,115.836 229.5,126C 223.267,129.391 216.6,130.891 209.5,130.5C 201.194,130.274 193.028,129.274 185,127.5C 183.496,136.04 181.996,144.54 180.5,153C 171.155,152.476 161.822,151.476 152.5,150C 150.679,147.544 150.012,144.711 150.5,141.5C 149.167,141.5 147.833,141.5 146.5,141.5C 150.5,111.168 154.5,80.8343 158.5,50.5 Z M 190.5,85.5 C 195.681,85.6028 200.681,86.6028 205.5,88.5C 206.663,90.5497 206.496,92.5497 205,94.5C 200.028,98.8032 194.528,99.6365 188.5,97C 189.488,93.2549 190.155,89.4216 190.5,85.5 Z"/></g>
<g><path style="opacity:0.904" fill="#030200" d="M 248.5,50.5 C 278.512,54.4064 308.512,58.4064 338.5,62.5C 338.768,65.1194 338.435,67.6194 337.5,70C 339.134,70.4935 340.801,70.6602 342.5,70.5C 341.675,79.7771 340.341,88.9438 338.5,98C 328.547,96.8891 318.547,95.7224 308.5,94.5C 305.833,115.501 303.167,136.501 300.5,157.5C 290.155,156.249 279.821,154.915 269.5,153.5C 269.232,150.881 269.565,148.381 270.5,146C 268.866,145.506 267.199,145.34 265.5,145.5C 268,126.84 270.167,108.173 272,89.5C 264.221,88.0308 256.388,86.6975 248.5,85.5C 248.5,82.8333 248.5,80.1667 248.5,77.5C 247.167,77.5 245.833,77.5 244.5,77.5C 245.465,68.4069 246.799,59.4069 248.5,50.5 Z"/></g>
<g><path style="opacity:0.902" fill="#020200" d="M 611.5,52.5 C 632.178,55.073 652.844,57.7397 673.5,60.5C 672.908,63.1272 672.575,65.7938 672.5,68.5C 674.199,68.3398 675.866,68.5065 677.5,69C 676.26,76.681 674.926,84.3477 673.5,92C 663.966,91.4006 654.466,90.2339 645,88.5C 642.035,89.7216 641.868,91.2216 644.5,93C 652.682,93.8095 660.682,95.3095 668.5,97.5C 666.288,102.038 667.622,104.538 672.5,105C 671.123,112.465 669.79,119.965 668.5,127.5C 668,127.833 667.5,128.167 667,128.5C 657.561,126.579 648.061,125.413 638.5,125C 636.726,134.411 635.226,143.911 634,153.5C 633.612,154.428 632.945,155.095 632,155.5C 622.216,153.798 612.383,152.465 602.5,151.5C 602.575,148.794 602.908,146.127 603.5,143.5C 601.712,143.785 600.045,143.452 598.5,142.5C 602.834,112.497 607.167,82.4971 611.5,52.5 Z"/></g>
<g><path style="opacity:0.902" fill="#040300" d="M 801.5,52.5 C 813.869,52.7645 826.203,53.5978 838.5,55C 846.289,71.3477 853.122,88.1811 859,105.5C 867.58,89.3392 876.413,73.3392 885.5,57.5C 897.458,58.7642 909.458,59.7642 921.5,60.5C 921.5,63.1667 921.5,65.8333 921.5,68.5C 922.833,68.5 924.167,68.5 925.5,68.5C 923.942,98.8666 921.942,129.2 919.5,159.5C 909.477,159.117 899.477,158.451 889.5,157.5C 888.82,152.561 887.486,147.894 885.5,143.5C 886.223,138.504 886.39,133.504 886,128.5C 880.833,137.667 875.667,146.833 870.5,156C 863.517,155.935 856.517,155.602 849.5,155C 842.851,142.406 837.351,129.239 833,115.5C 831.879,128.152 831.045,140.818 830.5,153.5C 820.493,152.928 810.493,152.261 800.5,151.5C 800.5,148.833 800.5,146.167 800.5,143.5C 798.833,143.5 797.167,143.5 795.5,143.5C 798.03,113.214 800.03,82.8811 801.5,52.5 Z"/></g>
<g><path style="opacity:0.89" fill="#040300" d="M 389.5,53.5 C 427.549,52.2114 448.549,70.5448 452.5,108.5C 450.074,142.762 431.741,159.262 397.5,158C 373.145,155.316 357.645,142.149 351,118.5C 345.102,96.2447 350.602,77.4113 367.5,62C 374.435,57.8598 381.768,55.0265 389.5,53.5 Z M 397.5,90.5 C 416.109,89.8169 420.943,97.8169 412,114.5C 403.322,123.468 394.322,123.801 385,115.5C 383.879,104.407 388.046,96.0741 397.5,90.5 Z"/></g>
<g><path style="opacity:0.89" fill="#040300" d="M 724.5,53.5 C 762.549,52.2114 783.549,70.5448 787.5,108.5C 785.074,142.762 766.741,159.262 732.5,158C 708.145,155.316 692.645,142.149 686,118.5C 680.102,96.2447 685.602,77.4113 702.5,62C 709.435,57.8598 716.768,55.0265 724.5,53.5 Z M 732.5,90.5 C 751.109,89.8169 755.943,97.8169 747,114.5C 738.322,123.468 729.322,123.801 720,115.5C 718.879,104.407 723.046,96.0741 732.5,90.5 Z"/></g>
<g><path style="opacity:0.89" fill="#040300" d="M 975.5,53.5 C 1013.55,52.2114 1034.55,70.5448 1038.5,108.5C 1036.07,142.762 1017.74,159.262 983.5,158C 959.145,155.316 943.645,142.149 937,118.5C 931.102,96.2447 936.602,77.4113 953.5,62C 960.435,57.8598 967.768,55.0265 975.5,53.5 Z M 983.5,90.5 C 1002.11,89.8169 1006.94,97.8169 998,114.5C 989.322,123.468 980.322,123.801 971,115.5C 969.879,104.407 974.046,96.0741 983.5,90.5 Z"/></g>
<g><path style="opacity:0.893" fill="#030300" d="M 77.5,54.5 C 91.4873,55.6183 105.487,56.785 119.5,58C 120.554,60.3822 121.221,62.8822 121.5,65.5C 122.833,65.5 124.167,65.5 125.5,65.5C 133.361,96.611 141.695,127.611 150.5,158.5C 149.5,158.833 148.5,159.167 147.5,159.5C 136.869,158.264 126.203,157.598 115.5,157.5C 115.167,154.833 114.833,152.167 114.5,149.5C 113.325,149.719 112.325,149.386 111.5,148.5C 110.373,144.865 109.373,141.198 108.5,137.5C 99.8672,135.74 91.2005,135.406 82.5,136.5C 80.2352,142.128 78.0685,147.794 76,153.5C 75.4387,154.022 74.772,154.355 74,154.5C 64.2034,153.407 54.3701,152.574 44.5,152C 44.0647,149.602 44.7313,147.269 46.5,145C 44.1902,144.503 41.8568,144.337 39.5,144.5C 51.6115,114.276 64.2782,84.2756 77.5,54.5 Z M 97.5,95.5 C 98.1174,95.6107 98.6174,95.944 99,96.5C 99.679,99.5499 100.512,102.55 101.5,105.5C 99.4476,105.705 97.1143,105.705 94.5,105.5C 95.4925,102.177 96.4925,98.8437 97.5,95.5 Z"/></g>
<g><path style="opacity:0.999" fill="#f9f815" d="M 161.5,54.5 C 181.076,56.225 200.409,59.3916 219.5,64C 234.283,70.9681 239.449,82.4681 235,98.5C 230.369,112.61 220.535,119.61 205.5,119.5C 196.142,118.687 186.808,117.687 177.5,116.5C 176.781,124.869 175.781,133.202 174.5,141.5C 166.443,141.278 158.443,140.444 150.5,139C 153.35,110.87 157.017,82.7035 161.5,54.5 Z M 190.5,85.5 C 190.155,89.4216 189.488,93.2549 188.5,97C 194.528,99.6365 200.028,98.8032 205,94.5C 206.496,92.5497 206.663,90.5497 205.5,88.5C 200.681,86.6028 195.681,85.6028 190.5,85.5 Z"/></g>
<g><path style="opacity:0.999" fill="#f9f915" d="M 250.5,53.5 C 278.931,57.3708 307.264,61.7041 335.5,66.5C 334.174,73.1102 333.174,79.7769 332.5,86.5C 322.458,85.4464 312.458,84.113 302.5,82.5C 299.407,103.487 296.407,124.487 293.5,145.5C 285.739,145.153 278.072,144.153 270.5,142.5C 270.167,141 269.833,139.5 269.5,138C 272.121,118.151 274.788,98.3172 277.5,78.5C 267.824,77.6098 258.158,76.6098 248.5,75.5C 248.697,68.1205 249.364,60.7871 250.5,53.5 Z"/></g>
<g><path style="opacity:0.892" fill="#040300" d="M 488.5,54.5 C 499.139,53.6633 509.472,54.9966 519.5,58.5C 520.769,60.6948 520.769,62.8615 519.5,65C 521.025,66.0086 522.692,66.5086 524.5,66.5C 523.725,74.9245 522.392,83.2578 520.5,91.5C 516.418,90.1833 512.251,89.1833 508,88.5C 505.578,88.7505 503.411,89.5838 501.5,91C 517.035,97.71 525.368,109.543 526.5,126.5C 524.827,147.004 513.661,157.337 493,157.5C 482.459,157.326 472.459,154.993 463,150.5C 462.503,148.19 462.337,145.857 462.5,143.5C 459.757,143.923 458.424,142.756 458.5,140C 459.548,132.831 460.548,125.665 461.5,118.5C 468.542,121.625 475.875,123.958 483.5,125.5C 486.598,125.452 488.932,124.119 490.5,121.5C 479.614,115.117 471.78,106.117 467,94.5C 462.447,74.5945 469.613,61.2612 488.5,54.5 Z"/></g>
<g><path style="opacity:0.999" fill="#f9f814" d="M 613.5,55.5 C 632.183,58.0738 650.85,60.7404 669.5,63.5C 668.833,69.1667 668.167,74.8333 667.5,80.5C 657.38,80.0066 647.38,78.6733 637.5,76.5C 635.663,82.6922 634.663,89.0256 634.5,95.5C 644.5,96.5 654.5,97.5 664.5,98.5C 663.927,104.511 663.26,110.511 662.5,116.5C 652.114,115.54 641.781,114.207 631.5,112.5C 630.167,122.833 628.833,133.167 627.5,143.5C 619.131,142.781 610.798,141.781 602.5,140.5C 606.249,112.178 609.915,83.8447 613.5,55.5 Z"/></g>
<g><path style="opacity:0.999" fill="#faf915" d="M 804.5,55.5 C 815.435,55.9174 826.269,56.9174 837,58.5C 843.463,77.4158 850.463,96.0824 858,114.5C 867.373,96.9201 876.873,79.4201 886.5,62C 897.186,61.8821 907.853,62.3821 918.5,63.5C 916.264,91.8095 914.264,120.143 912.5,148.5C 904.5,148.167 896.5,147.833 888.5,147.5C 889.426,131.497 890.426,115.497 891.5,99.5C 890.325,99.281 889.325,99.6143 888.5,100.5C 880.412,115.008 872.579,129.675 865,144.5C 864.439,145.022 863.772,145.355 863,145.5C 857.621,144.88 852.287,144.213 847,143.5C 840.861,127.58 835.027,111.58 829.5,95.5C 828.167,95.5 826.833,95.5 825.5,95.5C 824.966,110.839 824.3,126.173 823.5,141.5C 815.471,141.656 807.471,141.323 799.5,140.5C 801.116,112.165 802.782,83.8315 804.5,55.5 Z"/></g>
<g><path style="opacity:0.999" fill="#fafa14" d="M 389.5,56.5 C 409.94,54.647 426.44,61.647 439,77.5C 447.836,94.3188 447.503,110.985 438,127.5C 425.513,143.89 409.013,150.057 388.5,146C 360.179,138.215 348.345,119.715 353,90.5C 358.139,71.5302 370.306,60.1969 389.5,56.5 Z M 397.5,90.5 C 388.046,96.0741 383.879,104.407 385,115.5C 394.322,123.801 403.322,123.468 412,114.5C 420.943,97.8169 416.109,89.8169 397.5,90.5 Z"/></g>
<g><path style="opacity:0.998" fill="#fafa15" d="M 489.5,57.5 C 498.755,56.8067 507.755,57.9734 516.5,61C 516.957,61.414 517.291,61.914 517.5,62.5C 516.5,67.8304 515.5,73.1637 514.5,78.5C 509.511,77.7784 504.511,77.6117 499.5,78C 493.687,80.1281 492.187,83.9614 495,89.5C 499.406,93.2884 504.239,96.4551 509.5,99C 520.682,109.269 522.515,121.103 515,134.5C 509.468,141.35 502.301,145.183 493.5,146C 481.984,147.086 471.318,144.752 461.5,139C 462.302,133.348 463.469,127.848 465,122.5C 472.854,127.925 481.354,129.425 490.5,127C 494.93,122.872 495.43,118.372 492,113.5C 485.04,108.208 478.373,102.542 472,96.5C 464.804,77.5722 470.637,64.5722 489.5,57.5 Z"/></g>
<g><path style="opacity:0.999" fill="#fafa14" d="M 724.5,56.5 C 744.94,54.647 761.44,61.647 774,77.5C 782.836,94.3188 782.503,110.985 773,127.5C 760.513,143.89 744.013,150.057 723.5,146C 695.179,138.215 683.345,119.715 688,90.5C 693.139,71.5302 705.306,60.1969 724.5,56.5 Z M 732.5,90.5 C 723.046,96.0741 718.879,104.407 720,115.5C 729.322,123.801 738.322,123.468 747,114.5C 755.943,97.8169 751.109,89.8169 732.5,90.5 Z"/></g>
<g><path style="opacity:0.999" fill="#fafa14" d="M 975.5,56.5 C 995.94,54.647 1012.44,61.647 1025,77.5C 1033.84,94.3188 1033.5,110.985 1024,127.5C 1011.51,143.89 995.013,150.057 974.5,146C 946.179,138.215 934.345,119.715 939,90.5C 944.139,71.5302 956.306,60.1969 975.5,56.5 Z M 983.5,90.5 C 974.046,96.0741 969.879,104.407 971,115.5C 980.322,123.801 989.322,123.468 998,114.5C 1006.94,97.8169 1002.11,89.8169 983.5,90.5 Z"/></g>
<g><path style="opacity:0.999" fill="#fbfa14" d="M 79.5,58.5 C 92.1743,59.0339 104.841,59.7005 117.5,60.5C 125.324,89.4631 132.991,118.463 140.5,147.5C 131.801,147.581 123.135,147.081 114.5,146C 112.761,139.544 111.094,133.044 109.5,126.5C 98.1966,125.309 86.8632,124.642 75.5,124.5C 73.9053,130.283 71.9053,135.949 69.5,141.5C 61.1862,142.312 52.8529,142.312 44.5,141.5C 55.5799,113.596 67.2466,85.9292 79.5,58.5 Z M 97.5,95.5 C 96.4925,98.8437 95.4925,102.177 94.5,105.5C 97.1143,105.705 99.4476,105.705 101.5,105.5C 100.512,102.55 99.679,99.5499 99,96.5C 98.6174,95.944 98.1174,95.6107 97.5,95.5 Z"/></g>
<g><path style="opacity:1" fill="#b58e2d" d="M 167.5,60.5 C 180.894,61.841 194.228,63.6744 207.5,66C 230.141,71.2093 236.307,84.3759 226,105.5C 221.178,111.671 215.011,114.004 207.5,112.5C 226.04,107.421 231.873,95.7543 225,77.5C 220.415,72.957 214.915,70.1237 208.5,69C 195.164,66.9998 181.831,64.9998 168.5,63C 167.748,62.3292 167.414,61.4959 167.5,60.5 Z"/></g>
<g><path style="opacity:1" fill="#b58f2d" d="M 256.5,61.5 C 257.449,60.8476 258.615,60.5143 260,60.5C 282.802,63.8289 305.635,66.8289 328.5,69.5C 328.816,72.9783 328.316,76.3117 327,79.5C 325.648,77.4062 325.148,75.0728 325.5,72.5C 304.837,69.7149 284.17,66.8815 263.5,64C 260.823,63.8324 258.49,62.999 256.5,61.5 Z"/></g>
<g><path style="opacity:1" fill="#b7902e" d="M 810.5,62.5 C 817.719,61.4816 825.052,61.8149 832.5,63.5C 839.238,80.7154 845.571,98.0487 851.5,115.5C 849.876,115.64 848.71,114.973 848,113.5C 842.167,97.8333 836.333,82.1667 830.5,66.5C 824.531,65.4696 818.531,64.6363 812.5,64C 811.956,63.2828 811.289,62.7828 810.5,62.5 Z"/></g>
<g><path style="opacity:1" fill="#b58f2d" d="M 619.5,63.5 C 620.449,62.8476 621.615,62.5143 623,62.5C 636.5,64.3333 650,66.1667 663.5,68C 663.957,68.414 664.291,68.914 664.5,69.5C 663.811,71.444 663.311,73.444 663,75.5C 661.117,74.3474 660.284,72.6807 660.5,70.5C 647.498,68.7496 634.498,66.9162 621.5,65C 620.956,64.2828 620.289,63.7828 619.5,63.5 Z"/></g>
<g><path style="opacity:1" fill="#b58f2d" d="M 403.5,62.5 C 429.934,67.1042 441.767,82.7709 439,109.5C 433.156,133.149 417.99,143.816 393.5,141.5C 393.5,140.5 393.5,139.5 393.5,138.5C 424.722,139.108 438.889,123.775 436,92.5C 431.094,76.4314 420.26,67.4314 403.5,65.5C 403.5,64.5 403.5,63.5 403.5,62.5 Z"/></g>
<g><path style="opacity:1" fill="#b7922d" d="M 498.5,62.5 C 502.228,62.8436 505.895,63.5102 509.5,64.5C 510.833,67.1667 510.833,69.8333 509.5,72.5C 507.717,70.9775 507.051,68.9775 507.5,66.5C 504.482,66.2962 501.482,65.9629 498.5,65.5C 498.5,64.5 498.5,63.5 498.5,62.5 Z"/></g>
<g><path style="opacity:1" fill="#b58f2d" d="M 738.5,62.5 C 764.934,67.1042 776.767,82.7709 774,109.5C 768.156,133.149 752.99,143.816 728.5,141.5C 728.5,140.5 728.5,139.5 728.5,138.5C 759.722,139.108 773.889,123.775 771,92.5C 766.094,76.4314 755.26,67.4314 738.5,65.5C 738.5,64.5 738.5,63.5 738.5,62.5 Z"/></g>
<g><path style="opacity:1" fill="#b58f2d" d="M 989.5,62.5 C 1015.93,67.1042 1027.77,82.7709 1025,109.5C 1019.16,133.149 1003.99,143.816 979.5,141.5C 979.5,140.5 979.5,139.5 979.5,138.5C 1010.72,139.108 1024.89,123.775 1022,92.5C 1017.09,76.4314 1006.26,67.4314 989.5,65.5C 989.5,64.5 989.5,63.5 989.5,62.5 Z"/></g>
<g><path style="opacity:1" fill="#b5902d" d="M 83.5,63.5 C 93.4036,64.255 103.237,65.255 113,66.5C 119.909,91.5411 126.576,116.541 133,141.5C 130.944,140.417 129.611,138.75 129,136.5C 123.156,114.123 117.156,91.7897 111,69.5C 103.275,68.125 95.4417,67.2917 87.5,67C 85.0898,66.9428 83.7565,65.7761 83.5,63.5 Z"/></g>
<g><path style="opacity:1" fill="#b5902d" d="M 890.5,66.5 C 897.796,67.3549 905.129,68.0215 912.5,68.5C 910.525,93.1479 908.692,117.815 907,142.5C 905.025,140.83 904.191,138.664 904.5,136C 906.105,114.156 907.771,92.3229 909.5,70.5C 903.824,70.6661 898.157,70.4994 892.5,70C 891.177,69.1841 890.511,68.0174 890.5,66.5 Z"/></g>
<g><path style="opacity:1" fill="#b68f2e" d="M 175.5,72.5 C 176.627,73.1217 177.627,73.955 178.5,75C 176.399,84.3768 175.232,93.8768 175,103.5C 180.039,104.859 185.205,105.526 190.5,105.5C 190.5,106.5 190.5,107.5 190.5,108.5C 184.145,108.021 177.812,107.354 171.5,106.5C 172.365,95.1112 173.698,83.7779 175.5,72.5 Z"/></g>
<g><path style="opacity:0.941" fill="#080701" d="M 94.5,75.5 C 96.1238,75.3601 97.2904,76.0267 98,77.5C 100.345,87.8805 102.845,98.2139 105.5,108.5C 97.8402,109.191 90.1735,108.857 82.5,107.5C 86.7034,96.8872 90.7034,86.2205 94.5,75.5 Z M 97.5,95.5 C 96.4925,98.8437 95.4925,102.177 94.5,105.5C 97.1143,105.705 99.4476,105.705 101.5,105.5C 100.512,102.55 99.679,99.5499 99,96.5C 98.6174,95.944 98.1174,95.6107 97.5,95.5 Z"/></g>
<g><path style="opacity:0.918" fill="#050400" d="M 183.5,74.5 C 191.441,75.2667 199.108,77.1 206.5,80C 207.701,80.9025 208.535,82.0692 209,83.5C 209.667,87.1667 209.667,90.8333 209,94.5C 207.749,97.3807 205.583,99.214 202.5,100C 195.148,100.582 187.815,100.415 180.5,99.5C 181.594,91.1783 182.594,82.845 183.5,74.5 Z M 190.5,85.5 C 190.155,89.4216 189.488,93.2549 188.5,97C 194.528,99.6365 200.028,98.8032 205,94.5C 206.496,92.5497 206.663,90.5497 205.5,88.5C 200.681,86.6028 195.681,85.6028 190.5,85.5 Z"/></g>
<g><path style="opacity:1" fill="#b5902d" d="M 627.5,74.5 C 629.586,75.1485 630.586,76.6485 630.5,79C 629.359,85.822 628.359,92.6554 627.5,99.5C 638.127,101.113 648.794,102.447 659.5,103.5C 659.067,106.166 658.567,108.832 658,111.5C 656.117,110.347 655.284,108.681 655.5,106.5C 645.219,104.793 634.886,103.46 624.5,102.5C 625.688,93.1868 626.688,83.8535 627.5,74.5 Z"/></g>
<g><path style="opacity:0.91" fill="#050400" d="M 392.5,79.5 C 404.961,77.3081 413.461,81.9747 418,93.5C 420.533,104.175 418.033,113.341 410.5,121C 402.204,125.661 393.871,125.661 385.5,121C 375.967,110.211 375.134,98.7114 383,86.5C 385.825,83.524 388.992,81.1907 392.5,79.5 Z M 397.5,90.5 C 388.046,96.0741 383.879,104.407 385,115.5C 394.322,123.801 403.322,123.468 412,114.5C 420.943,97.8169 416.109,89.8169 397.5,90.5 Z"/></g>
<g><path style="opacity:0.91" fill="#050400" d="M 727.5,79.5 C 739.961,77.3081 748.461,81.9747 753,93.5C 755.533,104.175 753.033,113.341 745.5,121C 737.204,125.661 728.871,125.661 720.5,121C 710.967,110.211 710.134,98.7114 718,86.5C 720.825,83.524 723.992,81.1907 727.5,79.5 Z M 732.5,90.5 C 723.046,96.0741 718.879,104.407 720,115.5C 729.322,123.801 738.322,123.468 747,114.5C 755.943,97.8169 751.109,89.8169 732.5,90.5 Z"/></g>
<g><path style="opacity:0.91" fill="#050400" d="M 978.5,79.5 C 990.961,77.3081 999.461,81.9747 1004,93.5C 1006.53,104.175 1004.03,113.341 996.5,121C 988.204,125.661 979.871,125.661 971.5,121C 961.967,110.211 961.134,98.7114 969,86.5C 971.825,83.524 974.992,81.1907 978.5,79.5 Z M 983.5,90.5 C 974.046,96.0741 969.879,104.407 971,115.5C 980.322,123.801 989.322,123.468 998,114.5C 1006.94,97.8169 1002.11,89.8169 983.5,90.5 Z"/></g>
<g><path style="opacity:1" fill="#b58f2d" d="M 293.5,80.5 C 295.95,80.8743 296.95,82.3743 296.5,85C 293.907,102.821 291.407,120.654 289,138.5C 284.494,139.457 279.994,139.124 275.5,137.5C 276.688,136.16 278.188,135.493 280,135.5C 282.137,136.077 284.304,136.41 286.5,136.5C 289.162,117.873 291.495,99.2065 293.5,80.5 Z"/></g>
<g><path style="opacity:1" fill="#b58f2d" d="M 485.5,87.5 C 488.849,90.3413 492.183,93.508 495.5,97C 501.568,100.399 507.068,104.565 512,109.5C 516.968,125.066 511.802,135.233 496.5,140C 491.845,140.499 487.179,140.666 482.5,140.5C 482.5,139.5 482.5,138.5 482.5,137.5C 489.877,138.311 496.877,137.144 503.5,134C 510.576,127.482 512.41,119.648 509,110.5C 503.102,105.469 496.936,100.802 490.5,96.5C 487.529,94.2026 485.862,91.2026 485.5,87.5 Z"/></g>
<g><path style="opacity:1" fill="#b58e2d" d="M 819.5,94.5 C 820.156,95.6216 820.489,96.9549 820.5,98.5C 819.789,110.89 818.622,123.223 817,135.5C 815.886,133.03 815.386,130.364 815.5,127.5C 816.096,118.661 816.762,109.828 817.5,101C 817.658,98.5505 818.325,96.3838 819.5,94.5 Z"/></g>
<g><path style="opacity:1" fill="#b5902d" d="M 881.5,95.5 C 882.756,95.4614 883.756,95.9614 884.5,97C 876.54,111.086 868.706,125.253 861,139.5C 859.635,138.407 859.301,137.074 860,135.5C 867.446,122.272 874.613,108.939 881.5,95.5 Z"/></g>
<g><path style="opacity:1" fill="#b5902d" d="M 369.5,103.5 C 370.5,103.5 371.5,103.5 372.5,103.5C 372.128,113.458 376.128,121.125 384.5,126.5C 385.833,127.5 385.833,128.5 384.5,129.5C 374.374,123.928 369.374,115.261 369.5,103.5 Z"/></g>
<g><path style="opacity:1" fill="#b5902d" d="M 704.5,103.5 C 705.5,103.5 706.5,103.5 707.5,103.5C 707.128,113.458 711.128,121.125 719.5,126.5C 720.833,127.5 720.833,128.5 719.5,129.5C 709.374,123.928 704.374,115.261 704.5,103.5 Z"/></g>
<g><path style="opacity:1" fill="#b5902d" d="M 955.5,103.5 C 956.5,103.5 957.5,103.5 958.5,103.5C 958.128,113.458 962.128,121.125 970.5,126.5C 971.833,127.5 971.833,128.5 970.5,129.5C 960.374,123.928 955.374,115.261 955.5,103.5 Z"/></g>
<g><path style="opacity:1" fill="#b5912c" d="M 622.5,110.5 C 624.722,110.559 625.722,111.725 625.5,114C 624.427,121.846 623.26,129.679 622,137.5C 620.536,136.541 619.703,135.208 619.5,133.5C 620.968,125.889 621.968,118.222 622.5,110.5 Z"/></g>
<g><path style="opacity:1" fill="#b5902d" d="M 79.5,113.5 C 88.5075,113.8 97.5075,114.3 106.5,115C 106.957,115.414 107.291,115.914 107.5,116.5C 98.1831,117.335 88.8498,117.335 79.5,116.5C 79.5,115.5 79.5,114.5 79.5,113.5 Z"/></g>
<g><path style="opacity:1" fill="#b5902d" d="M 169.5,114.5 C 171.252,114.418 172.252,115.251 172.5,117C 171.535,123.231 170.369,129.397 169,135.5C 167.923,133.884 167.423,132.051 167.5,130C 168.121,124.817 168.788,119.651 169.5,114.5 Z"/></g>
</svg>
